# xmcd
#
# Track frame offsets:
#	150
#	19422
#	50290
#	69445
#	98030
#	119385
#	164760
#	191810
#	209972
#	246492
#
# Disc length: 3710 seconds
#
# Revision: 0
# Processed by: cddbd v1.4PL0 Copyright (c) Steve Scherf et al.
# Submitted via: MusicWizard 6.0.0
#
DISCID=9c0e7c0a
DTITLE=Williams Claude "Fiddler" - Swingin' The Blues
DYEAR=1999
DGENRE=violin
TTITLE0=The Preacher
TTITLE1=Things Ain't What They Used to Be
TTITLE2=Over the Rainbow
TTITLE3=A Smooth One
TTITLE4=Gee Baby, Ain't I Good to You
TTITLE5=I'm Just a Lucky So and So
TTITLE6=Moten Swing
TTITLE7=These Foolish Things
TTITLE8=One for the Count
TTITLE9=There Is No Greater Love
EXTD=Claude "Fiddler" Williams v - Keter Betts b - Joe Cohn g - Jimmy Lovelace dr - Bobby Watson as:
EXTT0=
EXTT1=
EXTT2=
EXTT3=
EXTT4=
EXTT5=
EXTT6=
EXTT7=
EXTT8=
EXTT9=
PLAYORDER=
